<?xml version="1.0" standalone="no"?>
<!DOCTYPE svg PUBLIC "-//W3C//DTD SVG 20010904//EN"
 "http://www.w3.org/TR/2001/REC-SVG-20010904/DTD/svg10.dtd">
<svg version="1.0" xmlns="http://www.w3.org/2000/svg"
 width="500.000000pt" height="500.000000pt" viewBox="0 0 500.000000 500.000000"
 preserveAspectRatio="xMidYMid meet">
<metadata>
Created by potrace 1.14, written by Peter Selinger 2001-2017
</metadata>
<g transform="translate(0.000000,500.000000) scale(0.100000,-0.100000)"
fill="#000000" stroke="none">
<path d="M2280 4936 c-100 -22 -178 -70 -269 -165 -86 -91 -196 -282 -262
-459 -25 -66 -19 -62 -111 -76 -68 -11 -199 -40 -263 -57 -38 -11 -77 -22 -85
-24 -102 -24 -306 -120 -382 -179 -181 -143 -206 -300 -75 -475 99 -133 283
-271 510 -382 37 -18 67 -36 67 -39 0 -3 -218 -223 -484 -489 l-485 -485 1030
-1029 1029 -1030 1025 1025 c564 564 1025 1029 1025 1034 0 5 -200 209 -445
454 l-445 444 101 48 c307 145 470 330 457 518 -7 89 -44 158 -132 246 -109
109 -242 190 -441 271 -99 41 -277 99 -331 109 -47 9 -61 22 -68 63 -11 71
-57 204 -91 266 -58 105 -146 173 -245 190 -49 8 -130 35 -160 53 -14 9 -50
39 -80 68 -30 29 -71 61 -91 72 -73 41 -192 52 -299 28z"/>
</g>
</svg>
